<svg width="16" height="16" viewBox="0 0 16 16" fill="none" xmlns="http://www.w3.org/2000/svg">
    <path d="M1.80668 11.3465L2.96668 9.02649C3.28668 8.37982 3.28668 7.62649 2.96668 6.97982L1.80668 4.65315C0.813348 2.66649 2.95335 0.566486 4.92001 1.60649L5.94668 2.15315C6.09335 2.22649 6.20668 2.34649 6.26668 2.49315L10.06 10.9265C10.2133 11.2732 10.0733 11.6798 9.74001 11.8532L4.91335 14.3932C2.95335 15.4332 0.813348 13.3332 1.80668 11.3465Z" fill="#FBD660"/>
    <path d="M10.8733 10.3998L8.38666 4.87981C8.10666 4.25981 8.77332 3.63314 9.37332 3.95314L13.22 5.97981C14.8533 6.83981 14.8533 9.17314 13.22 10.0331L11.86 10.7465C11.4933 10.9331 11.0467 10.7798 10.8733 10.3998Z" fill="#FBD660"/>
    </svg>
    