<svg width="14" height="12" viewBox="0 0 14 12" fill="none" xmlns="http://www.w3.org/2000/svg">
    <path d="M0.943339 5.37189C5.13267 3.52889 10.554 1.28189 11.3023 0.970894C13.2653 0.156894 13.8677 0.312894 13.5673 2.11556C13.3517 3.41123 12.7293 7.70089 12.2333 10.3709C11.939 11.9542 11.2787 12.1419 10.2403 11.4569C9.741 11.1272 7.22067 9.46056 6.67367 9.06923C6.17434 8.71256 5.48567 8.28356 6.34934 7.43856C6.65667 7.13756 8.67134 5.21389 10.241 3.71656C10.4467 3.51989 10.1883 3.19689 9.951 3.35456C7.83534 4.75756 4.90201 6.70489 4.52867 6.95856C3.96467 7.34156 3.42301 7.51723 2.45067 7.23789C1.71601 7.02689 0.998339 6.77523 0.719006 6.67923C-0.356661 6.30989 -0.101328 5.83156 0.943339 5.37189Z" fill="#111111"/>
    </svg>
    