<svg width="40" height="40" viewBox="0 0 40 40" fill="none" xmlns="http://www.w3.org/2000/svg">
<circle cx="20" cy="20" r="20" fill="#1E1E1E"/>
<path d="M14.9001 17.1001L19.6701 14.9801C19.8801 14.8901 20.1201 14.8901 20.3201 14.9801L25.0901 17.1001C25.5101 17.2901 25.9001 16.7801 25.6101 16.4201L20.6101 10.3101C20.2701 9.89012 19.7101 9.89012 19.3701 10.3101L14.3701 16.4201C14.0901 16.7801 14.4801 17.2901 14.9001 17.1001Z" fill="white"/>
<path d="M14.9006 22.8995L19.6805 25.0195C19.8905 25.1095 20.1305 25.1095 20.3305 25.0195L25.1105 22.8995C25.5305 22.7095 25.9205 23.2195 25.6305 23.5795L20.6305 29.6895C20.2905 30.1095 19.7305 30.1095 19.3905 29.6895L14.3905 23.5795C14.0905 23.2195 14.4706 22.7095 14.9006 22.8995Z" fill="white"/>
<path d="M19.7806 17.49L15.6505 19.55C15.2805 19.73 15.2805 20.26 15.6505 20.44L19.7806 22.5C19.9206 22.57 20.0905 22.57 20.2305 22.5L24.3605 20.44C24.7305 20.26 24.7305 19.73 24.3605 19.55L20.2305 17.49C20.0805 17.42 19.9206 17.42 19.7806 17.49Z" fill="white"/>
</svg>
