<svg width="200" height="200" viewBox="0 0 200 200" fill="none" xmlns="http://www.w3.org/2000/svg">
    <path d="M115.506 22.5596C118.617 22.9416 120.237 21.4945 120.639 18.2288L121.285 12.9638C121.686 9.6981 120.464 7.90178 117.353 7.51984L107.046 6.254C103.935 5.87206 102.292 7.31643 101.891 10.5821L101.244 15.8472C100.843 19.1128 102.088 20.9119 105.199 21.2938L115.506 22.5596ZM117.983 17.6322C117.765 19.4093 116.898 20.2275 115.254 20.0255L106.057 18.8961C104.391 18.6915 103.747 17.6879 103.965 15.9107L104.547 11.1788C104.767 9.37937 105.631 8.58352 107.298 8.78814L116.495 9.91757C118.139 10.1194 118.785 11.1008 118.565 12.9002L117.983 17.6322Z" fill="white"/>
    <path d="M138.047 30.1165L143.576 16.0085L141.096 15.0366L136.474 26.8314L126.033 22.7397C124.532 22.1516 124.138 21.0114 124.791 19.3443L128.426 10.071L125.884 9.07458L122.151 18.598C120.959 21.6405 121.73 23.7216 124.585 24.8405L138.047 30.1165Z" fill="white"/>
    <path d="M154.815 42.0493C154.739 41.7732 154.769 41.4637 155.083 41.028L156.72 38.7589C158.121 36.8165 157.157 35.5137 156.392 34.8519C157.201 35.298 158.581 35.796 160.086 33.7084L161.187 32.1836C162.482 30.3864 162.446 28.8693 160.394 27.3898L147.433 18.0414L138.569 30.3311L140.765 31.9154L144.025 27.3952L153.882 34.5047C154.899 35.2379 155.301 36.1348 154.541 37.1877L152.905 39.4569C152.591 39.8925 152.543 40.1889 152.637 40.4782L154.815 42.0493ZM157.66 32.4822C156.874 33.5713 155.989 33.458 155.046 32.7772L145.243 25.7069L148.306 21.4591L158.291 28.6602C159.308 29.3935 159.322 30.1767 158.642 31.1207L157.66 32.4822Z" fill="white"/>
    <path d="M177.993 70.3451C179.088 72.6501 180.462 72.9886 182.828 71.8655L186.346 70.1946C188.348 69.2441 189.056 67.917 187.961 65.6123L181.27 51.5198L167.582 58.0191L168.743 60.4656L172.464 58.6992L177.993 70.3451ZM181.979 69.295C180.746 69.8809 180.019 69.7057 179.481 68.5732L174.364 57.7968L180.389 54.9359L185.506 65.7126C186.044 66.8448 185.68 67.5384 184.628 68.0374L181.979 69.295Z" fill="white"/>
    <path d="M179.049 93.0475L181.488 92.5733L179.332 81.4783C179.02 79.8743 179.776 78.9518 181.533 78.61L191.31 76.7104L190.794 74.0515L180.753 76.0034C177.523 76.6308 176.197 78.3706 176.786 81.4027L179.049 93.0475Z" fill="white"/>
    <path d="M178.068 113.306L188.278 113.913C191.563 114.108 193.278 112.775 193.463 109.67L194.329 95.1017L191.849 94.9545L191.016 108.963C190.919 110.595 189.979 111.323 188.169 111.215L187.007 111.146L187.801 97.7853C187.952 95.2608 186.799 94.2729 184.587 94.1418L182.643 94.0261C180.431 93.8943 179.171 94.7391 179.021 97.2635L178.068 113.306ZM180.484 110.759L181.22 98.3585C181.295 97.1077 181.948 96.6756 183.132 96.7458L183.981 96.796C185.143 96.8655 185.741 97.3719 185.666 98.6227L184.93 111.023L180.484 110.759Z" fill="white"/>
    <path d="M174.468 124.7L179.348 126.268L185.857 138.795L186.884 135.598L181.776 125.66L191.721 120.532L192.789 117.207L180.219 123.702L175.296 122.122L174.468 124.7Z" fill="white"/>
    <path d="M162.054 148.101L164.157 149.425L170.18 139.86C171.05 138.478 172.233 138.323 173.748 139.277L182.176 144.585L183.619 142.293L174.964 136.842C172.179 135.089 170.021 135.449 168.376 138.063L162.054 148.101Z" fill="white"/>
    <path d="M153.136 156.837L163.547 167.847L165.515 165.986L155.104 154.976L153.136 156.837Z" fill="white"/>
    <path d="M132.874 170.35C130.642 171.587 130.425 173.088 131.5 175.027L132.4 176.651C133.474 178.589 134.874 179.221 137.106 177.984L146.737 172.645C147.833 172.038 148.559 172.378 149.123 173.396L149.395 173.885C149.959 174.903 149.851 175.679 148.755 176.287L136.403 183.134L137.498 185.111L150.693 177.797C152.905 176.571 153.122 175.07 152.047 173.131L151.245 171.683C150.171 169.744 148.771 169.113 146.559 170.339L136.908 175.688C135.811 176.296 135.075 175.936 134.522 174.938L134.163 174.292C133.588 173.255 133.715 172.468 134.811 171.86L147.458 164.851L146.362 162.874L132.874 170.35Z" fill="white"/>
    <path d="M119.354 174.678L122.547 186.937L114.662 188.991L115.289 191.395L133.634 186.617L133.008 184.212L125.146 186.26L121.953 174.001L119.354 174.678Z" fill="white"/>
    <path d="M84.2442 176.102C81.1351 175.709 79.5097 177.15 79.097 180.415L78.4321 185.678C78.0201 188.942 79.2361 190.742 82.3452 191.135L92.6482 192.437C95.7572 192.829 97.4054 191.391 97.8181 188.126L98.4829 182.864C98.895 179.599 97.6562 177.796 94.5478 177.403L84.2442 176.102ZM81.7505 181.021C81.9746 179.244 82.8448 178.429 84.4876 178.637L93.6809 179.798C95.3465 180.009 95.9866 181.014 95.7619 182.791L95.1646 187.52C94.9371 189.319 94.0702 190.112 92.4047 189.902L83.2114 188.74C81.5686 188.533 80.9258 187.549 81.1525 185.75L81.7505 181.021Z" fill="white"/>
    <path d="M61.7314 168.467L56.1533 182.556L58.6298 183.536L63.2932 171.758L73.7191 175.886C75.2174 176.479 75.608 177.62 74.9492 179.285L71.2823 188.546L73.8214 189.551L77.5866 180.041C78.79 177.003 78.0261 174.918 75.1753 173.79L61.7314 168.467Z" fill="white"/>
    <path d="M45.0015 156.476C45.0774 156.753 45.0462 157.062 44.7305 157.496L43.086 159.76C41.6783 161.698 42.6383 163.004 43.4005 163.668C42.5923 163.219 41.2147 162.716 39.7018 164.799L38.5967 166.32C37.2942 168.112 37.3262 169.629 39.3724 171.116L52.3012 180.51L61.2079 168.251L59.0168 166.659L55.741 171.168L45.9085 164.024C44.8945 163.288 44.4958 162.389 45.2589 161.339L46.9034 159.076C47.2192 158.641 47.2684 158.345 47.1744 158.055L45.0015 156.476ZM42.1246 166.034C42.914 164.947 43.7978 165.064 44.7394 165.748L54.5175 172.852L51.439 177.089L41.4798 169.853C40.4658 169.116 40.4539 168.333 41.138 167.391L42.1246 166.034Z" fill="white"/>
    <path d="M21.923 128.1C20.8367 125.791 19.4631 125.448 17.0936 126.563L13.5697 128.221C11.5648 129.165 10.8524 130.489 11.9388 132.798L18.5812 146.914L32.2918 140.462L31.1387 138.011L27.4123 139.765L21.923 128.1ZM17.9334 129.136C19.1688 128.555 19.8955 128.732 20.4291 129.866L25.5086 140.661L19.4735 143.501L14.394 132.706C13.8604 131.572 14.2273 130.88 15.2804 130.385L17.9334 129.136Z" fill="white"/>
    <path d="M20.9467 105.395L18.5063 105.86L20.6243 116.963C20.9304 118.568 20.1716 119.488 18.4128 119.823L8.62909 121.69L9.13658 124.35L19.1841 122.433C22.416 121.817 23.7484 120.081 23.1696 117.047L20.9467 105.395Z" fill="white"/>
    <path d="M22.0003 85.1392L11.7918 84.497C8.50806 84.2903 6.78745 85.6174 6.5921 88.7224L5.67578 103.287L8.15528 103.443L9.03648 89.4368C9.13909 87.8067 10.0818 87.081 11.8912 87.1947L13.0527 87.2676L12.2123 100.626C12.0535 103.15 13.2022 104.142 15.4137 104.281L17.3571 104.403C19.5685 104.542 20.8324 103.702 20.9912 101.178L22.0003 85.1392ZM19.5755 87.6783L18.7955 100.076C18.7168 101.326 18.0618 101.757 16.8779 101.682L16.0291 101.629C14.8675 101.555 14.2715 101.047 14.3502 99.796L15.1302 87.3987L19.5755 87.6783Z" fill="white"/>
    <path d="M25.6382 73.7572L20.7636 72.1733L14.298 59.6235L13.2605 62.8166L18.3332 72.7726L8.37056 77.8663L7.29163 81.1873L19.8841 74.7352L24.8014 76.3332L25.6382 73.7572Z" fill="white"/>
    <path d="M38.1324 50.3997L36.0346 49.0685L29.9782 58.612C29.1027 59.9915 27.9201 60.1423 26.4083 59.1829L17.9987 53.8459L16.5475 56.1326L25.1839 61.6134C27.9619 63.3764 30.121 63.0235 31.776 60.4156L38.1324 50.3997Z" fill="white"/>
    <path d="M47.0782 41.695L36.7054 30.649L34.7312 32.503L45.104 43.5489L47.0782 41.695Z" fill="white"/>
    <path d="M67.388 28.253C69.6241 27.0238 69.8462 25.5225 68.7786 23.5808L67.8836 21.9528C66.8159 20.0111 65.4187 19.3744 63.1828 20.6037L53.5328 25.9088C52.4344 26.5126 51.7098 26.1702 51.1491 25.1503L50.8795 24.66C50.3188 23.6401 50.4288 22.8644 51.5272 22.2606L63.9034 15.4567L62.8144 13.4757L49.5947 20.7433C47.3784 21.9617 47.1565 23.4629 48.224 25.4047L49.0219 26.8561C50.0894 28.7979 51.4866 29.4346 53.703 28.2161L63.3725 22.9002C64.4709 22.2964 65.2062 22.6584 65.7562 23.6587L66.112 24.3059C66.6835 25.3454 66.5539 26.1318 65.4555 26.7357L52.7851 33.7013L53.8741 35.6823L67.388 28.253Z" fill="white"/>
    <path d="M80.9251 23.9722L77.7746 11.7019L85.6655 9.67576L85.0481 7.26941L66.6857 11.984L67.3037 14.3903L75.1732 12.3698L78.3237 24.6402L80.9251 23.9722Z" fill="white"/>
    <path d="M100 63.3334C79.7821 63.3334 63.3333 79.7822 63.3333 100C63.3333 120.218 79.7821 136.667 100 136.667C120.218 136.667 136.667 120.218 136.667 100C136.667 79.7822 120.218 63.3334 100 63.3334ZM95.8249 84.7855C105.244 84.895 114.564 87.2048 123.074 91.6426C124.422 92.343 124.944 94.0066 124.242 95.3523C123.75 96.2946 122.793 96.831 121.799 96.8347C121.37 96.8347 120.935 96.734 120.528 96.5232C108.148 90.0643 93.8929 88.5563 80.3776 92.2872C78.9201 92.6832 77.399 91.8273 76.9938 90.3643C76.5905 88.8995 77.4482 87.3857 78.9131 86.9805C84.4853 85.446 90.1735 84.7198 95.8249 84.7855ZM95.9466 96.4014C103.648 96.5304 111.269 98.4085 118.229 101.977C119.581 102.67 120.115 104.328 119.422 105.679C118.934 106.629 117.974 107.174 116.976 107.172C116.553 107.172 116.124 107.077 115.723 106.871C105.792 101.782 94.3529 100.547 83.5179 103.395C82.0457 103.778 80.5442 102.903 80.1592 101.432C79.7742 99.9638 80.6511 98.4604 82.1214 98.0736C86.6768 96.8774 91.3259 96.324 95.9466 96.4014ZM96.1149 108.024C101.998 108.175 107.819 109.581 113.145 112.196C114.509 112.865 115.071 114.513 114.402 115.877C113.925 116.85 112.948 117.415 111.931 117.413C111.524 117.413 111.111 117.324 110.721 117.134C103.343 113.513 94.8565 112.572 86.8265 114.473C85.3341 114.831 83.8626 113.908 83.5143 112.432C83.1623 110.953 84.0741 109.472 85.5517 109.124C89.0312 108.298 92.5851 107.934 96.1149 108.024Z" fill="#FDF2CE"/>
    </svg>
    