<svg width="14" height="14" viewBox="0 0 14 14" fill="none" xmlns="http://www.w3.org/2000/svg">
<path d="M4.5 0.666656C2.38633 0.666656 0.666667 2.38632 0.666667 4.49999V9.49999C0.666667 11.6137 2.38633 13.3333 4.5 13.3333H9.5C11.6137 13.3333 13.3333 11.6137 13.3333 9.49999V4.49999C13.3333 2.38632 11.6137 0.666656 9.5 0.666656H4.5ZM10.3333 2.99999C10.7017 2.99999 11 3.29832 11 3.66666C11 4.03466 10.7017 4.33332 10.3333 4.33332C9.965 4.33332 9.66667 4.03466 9.66667 3.66666C9.66667 3.29832 9.965 2.99999 10.3333 2.99999ZM7 3.66666C8.838 3.66666 10.3333 5.16199 10.3333 6.99999C10.3333 8.83799 8.838 10.3333 7 10.3333C5.162 10.3333 3.66667 8.83799 3.66667 6.99999C3.66667 5.16199 5.162 3.66666 7 3.66666ZM7 4.66666C6.69358 4.66666 6.39017 4.72701 6.10707 4.84427C5.82398 4.96153 5.56675 5.1334 5.35008 5.35007C5.13341 5.56674 4.96154 5.82397 4.84428 6.10706C4.72702 6.39016 4.66667 6.69357 4.66667 6.99999C4.66667 7.30641 4.72702 7.60982 4.84428 7.89292C4.96154 8.17601 5.13341 8.43324 5.35008 8.64991C5.56675 8.86658 5.82398 9.03845 6.10707 9.15571C6.39017 9.27297 6.69358 9.33332 7 9.33332C7.30642 9.33332 7.60984 9.27297 7.89293 9.15571C8.17602 9.03845 8.43325 8.86658 8.64992 8.64991C8.86659 8.43324 9.03846 8.17601 9.15572 7.89292C9.27298 7.60982 9.33333 7.30641 9.33333 6.99999C9.33333 6.69357 9.27298 6.39016 9.15572 6.10706C9.03846 5.82397 8.86659 5.56674 8.64992 5.35007C8.43325 5.1334 8.17602 4.96153 7.89293 4.84427C7.60984 4.72701 7.30642 4.66666 7 4.66666Z" fill="#111111"/>
</svg>
