<svg width="14" height="12" viewBox="0 0 14 12" fill="none" xmlns="http://www.w3.org/2000/svg">
<path d="M0.943309 4.87189C5.13264 3.02889 10.554 0.781894 11.3023 0.470894C13.2653 -0.343106 13.8676 -0.187106 13.5673 1.61556C13.3516 2.91123 12.7293 7.20089 12.2333 9.87089C11.939 11.4542 11.2786 11.6419 10.2403 10.9569C9.74097 10.6272 7.22064 8.96056 6.67364 8.56923C6.17431 8.21256 5.48564 7.78356 6.34931 6.93856C6.65664 6.63756 8.67131 4.71389 10.241 3.21656C10.4466 3.01989 10.1883 2.69689 9.95097 2.85456C7.83531 4.25756 4.90198 6.20489 4.52864 6.45856C3.96464 6.84156 3.42298 7.01723 2.45064 6.73789C1.71598 6.52689 0.998309 6.27523 0.718975 6.17923C-0.356691 5.80989 -0.101358 5.33156 0.943309 4.87189Z" fill="#111111"/>
</svg>
