<svg width="16" height="12" viewBox="0 0 16 12" fill="none" xmlns="http://www.w3.org/2000/svg">
<path d="M13.5333 1.52339C13.5267 1.51672 13.5167 1.51005 13.5067 1.50005C12.71 0.860054 11.6433 0.533388 10.89 0.376721C10.1467 0.220054 9.40332 0.643387 9.16332 1.36005C9.15999 1.37339 9.15332 1.38339 9.14999 1.39672C10.4 1.52339 11.5167 1.86672 12.4233 2.40339C12.66 2.54339 12.7367 2.85005 12.5967 3.09005C12.5033 3.24672 12.3367 3.33339 12.1667 3.33339C12.08 3.33339 11.99 3.31005 11.91 3.26339C10.89 2.65672 9.53665 2.33672 7.99999 2.33672C6.46332 2.33672 5.10999 2.65672 4.08999 3.26339C3.84999 3.40339 3.54332 3.32672 3.40332 3.09005C3.26332 2.85005 3.33999 2.54339 3.57665 2.40339C4.48332 1.86672 5.59999 1.52339 6.84999 1.39672C6.84665 1.38339 6.83999 1.37339 6.83665 1.36005C6.59665 0.643387 5.85332 0.220054 5.10999 0.376721C4.35665 0.533388 3.28999 0.860054 2.49332 1.50005C2.48332 1.51005 2.47332 1.51672 2.46665 1.52339C1.72665 2.21005 0.359985 5.70339 0.359985 8.87672C0.359985 8.96339 0.379985 9.04672 0.423319 9.12339C1.23665 10.5534 3.15332 11.0767 3.94332 11.2334C4.03999 11.2534 4.13665 11.2634 4.23332 11.2634C4.70665 11.2634 5.16332 11.0367 5.44665 10.6434L5.61999 10.4067C3.90332 10.0001 3.02332 9.26672 2.97332 9.22339C2.76332 9.04339 2.73665 8.73005 2.91665 8.52005C3.09665 8.31005 3.40999 8.28339 3.61999 8.46005C3.64665 8.48339 5.11665 9.67339 7.99999 9.67339C10.8967 9.67339 12.3667 8.47339 12.38 8.46005C12.59 8.28339 12.9067 8.31005 13.0833 8.52339C13.26 8.73339 13.2367 9.04672 13.0267 9.22339C12.9767 9.26672 12.0967 10.0001 10.38 10.4067L10.5533 10.6434C10.8367 11.0367 11.2933 11.2634 11.7667 11.2634C11.8633 11.2634 11.96 11.2534 12.0567 11.2334C12.8467 11.0767 14.7633 10.5534 15.5767 9.12339C15.62 9.04672 15.64 8.96339 15.64 8.87672C15.64 5.70339 14.2733 2.21005 13.5333 1.52339ZM5.84332 7.97339C5.20665 7.97339 4.68999 7.38339 4.68999 6.65339C4.68999 5.92339 5.20665 5.33339 5.84332 5.33339C6.48332 5.33339 6.99999 5.92339 6.99999 6.65339C6.99999 7.38339 6.48332 7.97339 5.84332 7.97339ZM10.1467 8.00005C9.50332 8.00005 8.97999 7.40339 8.97999 6.66672C8.97999 5.93005 9.50332 5.33339 10.1467 5.33339C10.7933 5.33339 11.3133 5.93005 11.3133 6.66672C11.3133 7.40339 10.7933 8.00005 10.1467 8.00005Z" fill="#111111"/>
</svg>
