<svg width="24" height="24" viewBox="0 0 24 24" fill="none" xmlns="http://www.w3.org/2000/svg">
    <path d="M21.29 17.0198L19.55 13.5398C19.07 12.5698 19.07 11.4398 19.55 10.4698L21.29 6.98983C22.78 3.99983 19.57 0.859829 16.62 2.41983L15.08 3.23983C14.87 3.34983 14.7 3.52983 14.6 3.74983L8.9 16.3898C8.67 16.9098 8.88 17.5198 9.38 17.7798L16.62 21.5898C19.57 23.1498 22.78 19.9998 21.29 17.0198Z" fill="white"/>
    <path d="M7.69 15.6L11.42 7.31996C11.84 6.38996 10.84 5.44996 9.94 5.92996L4.17 8.95996C1.72 10.25 1.72 13.75 4.17 15.04L6.21 16.11C6.76 16.4 7.43 16.17 7.69 15.6Z" fill="white"/>
    </svg>
    