<svg width="16" height="12" viewBox="0 0 16 12" fill="none" xmlns="http://www.w3.org/2000/svg">
    <path d="M13.5333 2.02339C13.5267 2.01672 13.5167 2.01005 13.5067 2.00005C12.71 1.36005 11.6433 1.03339 10.89 0.876721C10.1467 0.720054 9.40332 1.14339 9.16332 1.86005C9.15999 1.87339 9.15332 1.88339 9.14999 1.89672C10.4 2.02339 11.5167 2.36672 12.4233 2.90339C12.66 3.04339 12.7367 3.35005 12.5967 3.59005C12.5033 3.74672 12.3367 3.83339 12.1667 3.83339C12.08 3.83339 11.99 3.81005 11.91 3.76339C10.89 3.15672 9.53665 2.83672 7.99999 2.83672C6.46332 2.83672 5.10999 3.15672 4.08999 3.76339C3.84999 3.90339 3.54332 3.82672 3.40332 3.59005C3.26332 3.35005 3.33999 3.04339 3.57665 2.90339C4.48332 2.36672 5.59999 2.02339 6.84999 1.89672C6.84665 1.88339 6.83999 1.87339 6.83665 1.86005C6.59665 1.14339 5.85332 0.720054 5.10999 0.876721C4.35665 1.03339 3.28999 1.36005 2.49332 2.00005C2.48332 2.01005 2.47332 2.01672 2.46665 2.02339C1.72665 2.71005 0.359985 6.20339 0.359985 9.37672C0.359985 9.46339 0.379985 9.54672 0.423319 9.62339C1.23665 11.0534 3.15332 11.5767 3.94332 11.7334C4.03999 11.7534 4.13665 11.7634 4.23332 11.7634C4.70665 11.7634 5.16332 11.5367 5.44665 11.1434L5.61999 10.9067C3.90332 10.5001 3.02332 9.76672 2.97332 9.72339C2.76332 9.54339 2.73665 9.23005 2.91665 9.02005C3.09665 8.81005 3.40999 8.78339 3.61999 8.96005C3.64665 8.98339 5.11665 10.1734 7.99999 10.1734C10.8967 10.1734 12.3667 8.97339 12.38 8.96005C12.59 8.78339 12.9067 8.81005 13.0833 9.02339C13.26 9.23339 13.2367 9.54672 13.0267 9.72339C12.9767 9.76672 12.0967 10.5001 10.38 10.9067L10.5533 11.1434C10.8367 11.5367 11.2933 11.7634 11.7667 11.7634C11.8633 11.7634 11.96 11.7534 12.0567 11.7334C12.8467 11.5767 14.7633 11.0534 15.5767 9.62339C15.62 9.54672 15.64 9.46339 15.64 9.37672C15.64 6.20339 14.2733 2.71005 13.5333 2.02339ZM5.84332 8.47339C5.20665 8.47339 4.68999 7.88339 4.68999 7.15339C4.68999 6.42339 5.20665 5.83339 5.84332 5.83339C6.48332 5.83339 6.99999 6.42339 6.99999 7.15339C6.99999 7.88339 6.48332 8.47339 5.84332 8.47339ZM10.1467 8.50005C9.50332 8.50005 8.97999 7.90339 8.97999 7.16672C8.97999 6.43005 9.50332 5.83339 10.1467 5.83339C10.7933 5.83339 11.3133 6.43005 11.3133 7.16672C11.3133 7.90339 10.7933 8.50005 10.1467 8.50005Z" fill="#111111"/>
    </svg>
    