<svg width="14" height="13" viewBox="0 0 14 13" fill="none" xmlns="http://www.w3.org/2000/svg">
    <path d="M4.49999 0.166504C2.38632 0.166504 0.666656 1.88617 0.666656 3.99984V8.99984C0.666656 11.1135 2.38632 12.8332 4.49999 12.8332H9.49999C11.6137 12.8332 13.3333 11.1135 13.3333 8.99984V3.99984C13.3333 1.88617 11.6137 0.166504 9.49999 0.166504H4.49999ZM10.3333 2.49984C10.7017 2.49984 11 2.79817 11 3.1665C11 3.5345 10.7017 3.83317 10.3333 3.83317C9.96499 3.83317 9.66666 3.5345 9.66666 3.1665C9.66666 2.79817 9.96499 2.49984 10.3333 2.49984ZM6.99999 3.1665C8.83799 3.1665 10.3333 4.66184 10.3333 6.49984C10.3333 8.33784 8.83799 9.83317 6.99999 9.83317C5.16199 9.83317 3.66666 8.33784 3.66666 6.49984C3.66666 4.66184 5.16199 3.1665 6.99999 3.1665ZM6.99999 4.1665C6.69357 4.1665 6.39016 4.22686 6.10706 4.34412C5.82397 4.46138 5.56674 4.63325 5.35007 4.84992C5.1334 5.06659 4.96153 5.32382 4.84427 5.60691C4.72701 5.89 4.66666 6.19342 4.66666 6.49984C4.66666 6.80626 4.72701 7.10967 4.84427 7.39277C4.96153 7.67586 5.1334 7.93308 5.35007 8.14975C5.56674 8.36642 5.82397 8.5383 6.10706 8.65556C6.39016 8.77282 6.69357 8.83317 6.99999 8.83317C7.30641 8.83317 7.60982 8.77282 7.89292 8.65556C8.17601 8.5383 8.43324 8.36642 8.64991 8.14975C8.86658 7.93308 9.03845 7.67586 9.15571 7.39277C9.27297 7.10967 9.33332 6.80626 9.33332 6.49984C9.33332 6.19342 9.27297 5.89 9.15571 5.60691C9.03845 5.32382 8.86658 5.06659 8.64991 4.84992C8.43324 4.63325 8.17601 4.46138 7.89292 4.34412C7.60982 4.22686 7.30641 4.1665 6.99999 4.1665Z" fill="#111111"/>
    </svg>
    